<svg width="41" height="41" viewBox="0 0 41 41" fill="none" xmlns="http://www.w3.org/2000/svg">
<path d="M24.8887 9.70998C23.822 10.9788 22.1154 11.9796 20.4087 11.8366C20.1954 10.121 21.0309 8.29817 22.0087 7.1723C23.0753 5.86772 24.942 4.93843 26.4531 4.86694C26.6309 6.65404 25.9375 8.4054 24.8887 9.70998Z" fill="#141414"/>
<path d="M26.4353 12.1763C23.9643 12.0333 21.8487 13.5881 20.6754 13.5881C19.4843 13.5881 17.6888 12.2478 15.7332 12.2835C13.191 12.3192 10.8266 13.7668 9.52882 16.0722C6.86218 20.6829 8.8355 27.5096 11.4133 31.2625C12.6755 33.1211 14.1866 35.1583 16.1777 35.0869C18.0621 35.0154 18.8087 33.8538 21.0843 33.8538C23.3776 33.8538 24.0354 35.0869 26.0265 35.0511C28.0887 35.0154 29.3864 33.1925 30.6486 31.334C32.0886 29.2252 32.6753 27.17 32.7108 27.0628C32.6753 27.0271 28.7287 25.508 28.6931 20.9331C28.6575 17.1087 31.8042 15.2858 31.9464 15.1786C30.1686 12.5337 27.3953 12.2478 26.4353 12.1763Z" fill="#141414"/>
</svg>
