<svg width="45" height="45" viewBox="0 0 45 45" fill="none" xmlns="http://www.w3.org/2000/svg">
<path d="M0 16C0 7.16344 7.16344 0 16 0H29C37.8366 0 45 7.16344 45 16V29C45 37.8366 37.8366 45 29 45H16C7.16344 45 0 37.8366 0 29V16Z" fill="#226BF7"/>
<path d="M25.1417 30.5716C25.1813 30.6505 25.2501 30.7179 25.3389 30.7646C25.4277 30.8113 25.5322 30.8352 25.6384 30.833C25.7447 30.8308 25.8475 30.8027 25.9332 30.7524C26.0189 30.7021 26.0833 30.6321 26.1178 30.5516L32.8886 14.7183C32.9219 14.6445 32.9283 14.5646 32.9069 14.4879C32.8856 14.4113 32.8374 14.3411 32.768 14.2856C32.6986 14.2301 32.6109 14.1915 32.5151 14.1745C32.4193 14.1574 32.3194 14.1625 32.2271 14.1891L12.4355 19.6058C12.3349 19.6334 12.2474 19.6849 12.1845 19.7534C12.1216 19.822 12.0865 19.9043 12.0838 19.9893C12.081 20.0743 12.1109 20.1579 12.1693 20.2289C12.2277 20.2999 12.3118 20.355 12.4105 20.3866L20.6709 23.0366C20.932 23.1203 21.1693 23.2453 21.3683 23.4043C21.5674 23.5633 21.7242 23.7529 21.8292 23.9616L25.1417 30.5716Z" stroke="white" stroke-width="1.66667" stroke-linecap="round" stroke-linejoin="round"/>
<path d="M32.7645 14.2891L21.3687 23.4049" stroke="white" stroke-width="1.66667" stroke-linecap="round" stroke-linejoin="round"/>
</svg>
