<svg width="22" height="21" viewBox="0 0 22 21" fill="none" xmlns="http://www.w3.org/2000/svg">
<path d="M0.75 10.25C0.75 6.479 0.75 4.593 1.922 3.422C3.094 2.251 4.979 2.25 8.75 2.25H12.75C16.521 2.25 18.407 2.25 19.578 3.422C20.749 4.594 20.75 6.479 20.75 10.25V12.25C20.75 16.021 20.75 17.907 19.578 19.078C18.406 20.249 16.521 20.25 12.75 20.25H8.75C4.979 20.25 3.093 20.25 1.922 19.078C0.751 17.906 0.75 16.021 0.75 12.25V10.25Z" stroke="black" stroke-opacity="0.5" stroke-width="1.5"/>
<path opacity="0.5" d="M5.75 2.25V0.75M15.75 2.25V0.75M0.75 7.25H20.75" stroke="black" stroke-opacity="0.5" stroke-width="1.5" stroke-linecap="round"/>
<path d="M7.75 12.75L9.25 11.25V15.25" stroke="black" stroke-opacity="0.5" stroke-width="1.5" stroke-linecap="round" stroke-linejoin="round"/>
<path d="M11.75 14.25V12.25C11.75 11.9848 11.8554 11.7304 12.0429 11.5429C12.2304 11.3554 12.4848 11.25 12.75 11.25C13.0152 11.25 13.2696 11.3554 13.4571 11.5429C13.6446 11.7304 13.75 11.9848 13.75 12.25V14.25C13.75 14.5152 13.6446 14.7696 13.4571 14.9571C13.2696 15.1446 13.0152 15.25 12.75 15.25C12.4848 15.25 12.2304 15.1446 12.0429 14.9571C11.8554 14.7696 11.75 14.5152 11.75 14.25Z" stroke="black" stroke-opacity="0.5" stroke-width="1.5" stroke-linecap="round"/>
</svg>
