<svg width="24" height="24" viewBox="0 0 24 24" fill="none" xmlns="http://www.w3.org/2000/svg">
<path fill-rule="evenodd" clip-rule="evenodd" d="M4.93726 6.53723C4 7.47449 4 8.98299 4 12C4 15.017 4 16.5255 4.93726 17.4627C5.87452 18.4 7.38301 18.4 10.4 18.4H13.6C16.617 18.4 18.1255 18.4 19.0627 17.4627C20 16.5255 20 15.017 20 12C20 8.98299 20 7.47449 19.0627 6.53723C18.1255 5.59998 16.617 5.59998 13.6 5.59998H10.4C7.38301 5.59998 5.87452 5.59998 4.93726 6.53723ZM17.2609 8.41586C17.4731 8.67043 17.4387 9.04877 17.1841 9.26091L15.4269 10.7252C14.7178 11.3162 14.1431 11.7951 13.6359 12.1214C13.1075 12.4612 12.5929 12.6759 12 12.6759C11.4071 12.6759 10.8925 12.4612 10.3641 12.1214C9.85689 11.7951 9.28217 11.3162 8.57308 10.7252L6.81589 9.26091C6.56132 9.04877 6.52693 8.67043 6.73907 8.41586C6.95121 8.1613 7.32954 8.1269 7.58411 8.33904L9.31123 9.77831C10.0576 10.4003 10.5758 10.8307 11.0133 11.1121C11.4368 11.3844 11.7239 11.4759 12 11.4759C12.2761 11.4759 12.5632 11.3844 12.9867 11.1121C13.4242 10.8307 13.9424 10.4003 14.6888 9.77831L16.4159 8.33904C16.6705 8.1269 17.0488 8.1613 17.2609 8.41586Z" fill="#141414" fill-opacity="0.5"/>
</svg>
