<svg width="789" height="693" viewBox="0 0 789 693" fill="none" xmlns="http://www.w3.org/2000/svg">
<g id="Enabble Location">
<path id="Stroke 1" fill-rule="evenodd" clip-rule="evenodd" d="M714.094 378.325C714.094 550.288 574.687 689.695 402.724 689.695C230.761 689.695 91.3569 550.288 91.3569 378.325C91.3569 206.362 230.761 66.9553 402.724 66.9553C574.687 66.9553 714.094 206.362 714.094 378.325Z" stroke="#E9EAEC" stroke-opacity="0.4" stroke-dasharray="5.02 5.02"/>
<path id="Stroke 3" fill-rule="evenodd" clip-rule="evenodd" d="M633.949 378.325C633.949 506.026 530.425 609.55 402.724 609.55C275.02 609.55 171.502 506.026 171.502 378.325C171.502 250.624 275.02 147.1 402.724 147.1C530.425 147.1 633.949 250.624 633.949 378.325Z" stroke="#E9EAEC" stroke-opacity="0.4" stroke-dasharray="5.05 5.05"/>
<path id="Stroke 5" d="M32.5344 420.247L26.7534 420.07" stroke="#D2D8DF" stroke-linecap="round"/>
<path id="Stroke 7" d="M28.3872 409.286L24.2412 413.159" stroke="#D2D8DF" stroke-linecap="round"/>
<path id="Stroke 9" d="M17.5812 404.281L17.4942 409.933" stroke="#D2D8DF" stroke-linecap="round"/>
<path id="Stroke 11" d="M6.44398 408.161L10.47 412.283" stroke="#D2D8DF" stroke-linecap="round"/>
<path id="Stroke 13" d="M1.5 418.657L7.278 418.834" stroke="#D2D8DF" stroke-linecap="round"/>
<path id="Stroke 15" d="M5.64569 429.618L9.79469 425.745" stroke="#D2D8DF" stroke-linecap="round"/>
<path id="Stroke 17" d="M16.4532 434.625L16.5402 428.973" stroke="#D2D8DF" stroke-linecap="round"/>
<path id="Stroke 19" d="M27.5904 430.743L23.5644 426.621" stroke="#D2D8DF" stroke-linecap="round"/>
<path id="Stroke 21" d="M786.443 339.667L783.902 342.418" stroke="#D2D8DF" stroke-linecap="round"/>
<path id="Stroke 23" d="M774.513 342.057L776.43 343.824" stroke="#D2D8DF" stroke-linecap="round"/>
<path id="Stroke 25" d="M772.579 354.251L775.12 351.5" stroke="#D2D8DF" stroke-linecap="round"/>
<path id="Stroke 27" d="M784.506 351.86L782.592 350.093" stroke="#D2D8DF" stroke-linecap="round"/>
<path id="Stroke 29" d="M553.711 16.3404L547.564 16.1754" stroke="#D2D8DF" stroke-linecap="round"/>
<path id="Stroke 31" d="M537.806 1.5L537.713 6.753" stroke="#D2D8DF" stroke-linecap="round"/>
<path id="Stroke 33" d="M520.699 14.8623L526.846 15.0243" stroke="#D2D8DF" stroke-linecap="round"/>
<path id="Stroke 35" d="M536.605 29.7027L536.698 24.4497" stroke="#D2D8DF" stroke-linecap="round"/>
<path id="Fill 37" fill-rule="evenodd" clip-rule="evenodd" d="M98.511 583.519C94.089 584.842 86.724 591.34 84.204 599.044C83.781 591.886 79.236 582.889 74.235 581.593C80.337 579.436 86.946 571.507 88.704 564.826C88.386 571.828 94.743 581.995 98.511 583.519Z" fill="#EBECEF"/>
<path id="Fill 39" fill-rule="evenodd" clip-rule="evenodd" d="M202.078 44.4771C198.667 45.0801 192.622 49.2801 190.078 54.8001C190.381 49.4331 187.774 42.3381 184.162 40.9401C188.893 39.8601 194.503 34.5261 196.39 29.7021C195.547 34.8921 199.402 43.0161 202.078 44.4771Z" fill="#EBECEF"/>
<path id="Fill 41" fill-rule="evenodd" clip-rule="evenodd" d="M654.179 83.4506C649.622 83.3516 646.01 79.5806 646.112 75.0266C646.211 70.4726 649.982 66.8606 654.533 66.9596C659.09 67.0586 662.702 70.8296 662.603 75.3836C662.501 79.9376 658.733 83.5496 654.179 83.4506Z" fill="#D1D9E0"/>
<path id="Fill 43" fill-rule="evenodd" clip-rule="evenodd" d="M654.199 623.908C650.236 623.824 647.092 620.539 647.176 616.576C647.26 612.61 650.545 609.466 654.511 609.55C658.477 609.637 661.621 612.919 661.534 616.885C661.447 620.848 658.165 623.995 654.199 623.908Z" fill="#EBECEF"/>
<path id="Stroke 45" fill-rule="evenodd" clip-rule="evenodd" d="M57.9669 192.91C55.5129 192.856 53.5659 190.825 53.6199 188.368C53.6709 185.914 55.7049 183.97 58.1589 184.021C60.6129 184.075 62.5599 186.106 62.5089 188.56C62.4549 191.017 60.4209 192.964 57.9669 192.91Z" stroke="#D2D8DF" stroke-linecap="round"/>
<path id="Fill 47" fill-rule="evenodd" clip-rule="evenodd" d="M536.698 175.702C536.698 191.497 523.891 204.301 508.099 204.301C492.301 204.301 479.5 191.497 479.5 175.702C479.5 159.907 492.301 147.1 508.099 147.1C523.891 147.1 536.698 159.907 536.698 175.702Z" fill="white"/>
<path id="Fill 49" fill-rule="evenodd" clip-rule="evenodd" d="M220.192 553.664L177.586 290.666C176.953 286.772 178.744 282.884 182.11 280.832L294.643 212.141C296.857 210.791 299.515 210.38 302.029 211.001L440.842 245.333C443.443 245.975 446.194 245.513 448.444 244.058L541.306 183.971C546.766 180.437 554.093 183.17 555.898 189.419L634.03 459.185C635.173 463.136 633.703 467.378 630.364 469.775L544.87 531.044C542.551 532.703 539.626 533.261 536.863 532.571L374.248 491.918C371.974 491.351 369.568 491.624 367.483 492.689L234.187 560.756C228.325 563.747 221.248 560.162 220.192 553.664Z" fill="#F1F2F7"/>
<path id="Fill 51" fill-rule="evenodd" clip-rule="evenodd" d="M508.453 197.952C494.929 197.952 483.967 186.987 483.967 173.463C483.967 159.939 494.929 148.974 508.453 148.974C521.98 148.974 532.942 159.939 532.942 173.463C532.942 186.987 521.98 197.952 508.453 197.952ZM508.453 121.764C480.694 120.978 457.552 142.845 456.766 170.604C456.745 171.393 456.742 172.185 456.757 172.974C456.757 215.856 504.643 255.528 506.659 257.16C507.676 258.033 509.176 258.033 510.196 257.16C512.317 255.258 560.152 211.611 560.152 172.974C560.674 145.206 538.591 122.274 510.823 121.755C510.034 121.74 509.245 121.743 508.453 121.764Z" fill="url(#paint0_linear_9035_70)"/>
<path id="Stroke 53" d="M315.595 434.323L398.479 455.947C407.2 458.221 414.061 448.444 408.937 441.031C380.326 399.655 326.776 313.9 377.161 317.5C443.467 322.237 430.837 382.117 445.045 390.067C459.256 398.014 544.504 380.26 547.66 348.883C550.819 317.5 539.77 301.714 517.666 292.243C495.565 282.769 506.659 257.161 506.659 257.161" stroke="#0E1D25" stroke-width="2" stroke-dasharray="7"/>
<path id="Fill 55" fill-rule="evenodd" clip-rule="evenodd" d="M209.596 325.589L203.923 303.53C202.669 298.658 204.829 293.549 209.2 291.05L278.338 251.543C278.884 251.231 279.451 250.967 280.039 250.751L302.956 242.366C304.939 241.64 307.09 241.49 309.157 241.937L359.443 252.818C363.472 253.688 366.691 256.706 367.822 260.666C369.979 268.214 363.886 275.57 356.071 274.859L333.949 272.849C326.872 272.204 321.001 278.246 321.847 285.302L323.884 302.279C324.502 307.427 321.496 312.323 316.627 314.102L270.145 331.079C266.869 332.273 263.227 331.871 260.29 329.993L247.543 321.839C242.338 318.506 235.417 320.036 232.099 325.25L229.837 328.805C224.59 337.049 212.032 335.054 209.596 325.589Z" fill="#D8DBEA"/>
<path id="Fill 57" fill-rule="evenodd" clip-rule="evenodd" d="M515.174 425.423L531.044 493.442C532.868 501.26 542.105 504.659 548.561 499.886L601.4 460.829C605.096 458.102 606.74 453.389 605.549 448.952L593.153 402.752C591.515 396.644 585.14 393.113 579.098 394.964L522.782 412.205C517.163 413.924 513.839 419.702 515.174 425.423Z" fill="#D8DBEA"/>
<path id="Fill 59" fill-rule="evenodd" clip-rule="evenodd" d="M449.98 447.948L486.223 450.27C490.969 450.576 495.004 453.852 496.273 458.439L503.317 483.885C505.585 492.072 498.247 499.692 489.979 497.733L454.105 489.237C450.517 488.388 447.577 485.82 446.254 482.379L438.841 463.104C435.919 455.502 441.853 447.429 449.98 447.948Z" fill="#D8DBEA"/>
<path id="Fill 61" fill-rule="evenodd" clip-rule="evenodd" d="M282.24 431.386C267.597 431.386 255.726 419.515 255.726 404.875C255.726 390.232 267.597 378.361 282.24 378.361C296.883 378.361 308.751 390.232 308.751 404.875C308.751 419.515 296.883 431.386 282.24 431.386ZM282.24 348.904C252.183 348.052 227.133 371.725 226.281 401.779C226.257 402.634 226.254 403.489 226.269 404.344C226.269 450.769 278.115 493.72 280.296 495.487C281.397 496.432 283.023 496.432 284.124 495.487C286.425 493.426 338.208 446.176 338.208 404.344C338.775 374.284 314.865 349.456 284.802 348.892C283.947 348.877 283.092 348.88 282.24 348.904Z" fill="url(#paint1_linear_9035_70)"/>
</g>
<defs>
<linearGradient id="paint0_linear_9035_70" x1="456.748" y1="121.743" x2="456.748" y2="257.814" gradientUnits="userSpaceOnUse">
<stop stop-color="#CEB591"/>
<stop offset="1" stop-color="#C9A961"/>
</linearGradient>
<linearGradient id="paint1_linear_9035_70" x1="282.239" y1="275.225" x2="140.304" y2="383.095" gradientUnits="userSpaceOnUse">
<stop stop-color="#CEB591"/>
<stop offset="1" stop-color="#C9A961"/>
</linearGradient>
</defs>
</svg>
