<svg width="24" height="24" viewBox="0 0 24 24" fill="none" xmlns="http://www.w3.org/2000/svg">
<path fill-rule="evenodd" clip-rule="evenodd" d="M6.6 10.4437V8.80002C6.6 5.81769 9.01766 3.40002 12 3.40002C14.9823 3.40002 17.4 5.81769 17.4 8.80002V10.4437C18.2918 10.5103 18.8726 10.6785 19.2971 11.103C20 11.8059 20 12.9373 20 15.2C20 17.4628 20 18.5941 19.2971 19.2971C18.5941 20 17.4627 20 15.2 20H8.8C6.53726 20 5.40589 20 4.70294 19.2971C4 18.5941 4 17.4628 4 15.2C4 12.9373 4 11.8059 4.70294 11.103C5.12745 10.6785 5.7082 10.5103 6.6 10.4437ZM7.8 8.80002C7.8 6.48043 9.6804 4.60002 12 4.60002C14.3196 4.60002 16.2 6.48043 16.2 8.80002V10.4029C15.8936 10.4 15.5612 10.4 15.2 10.4H8.8C8.43879 10.4 8.10641 10.4 7.8 10.4029V8.80002Z" fill="#141414" fill-opacity="0.5"/>
</svg>
