<svg width="40" height="40" viewBox="0 0 40 40" fill="none" xmlns="http://www.w3.org/2000/svg">
<rect width="40" height="40" rx="20" fill="white"/>
<rect x="0.41" y="0.41" width="39.18" height="39.18" rx="19.59" stroke="black" stroke-opacity="0.07" stroke-width="0.82"/>
<path fill-rule="evenodd" clip-rule="evenodd" d="M20 11C20 10.7348 19.8947 10.4804 19.7071 10.2929C19.5196 10.1054 19.2652 10 19 10C18.7348 10 18.4804 10.1054 18.2929 10.2929C18.1054 10.4804 18 10.7348 18 11V11.75H17.443C16.371 11.7499 15.3393 12.1584 14.5579 12.8922C13.7765 13.6261 13.3042 14.6301 13.237 15.7L13.016 19.234C12.9306 20.5812 12.4783 21.8794 11.708 22.988C11.5486 23.2171 11.4513 23.4835 11.4254 23.7613C11.3994 24.0392 11.4459 24.319 11.5601 24.5736C11.6744 24.8281 11.8526 25.0488 12.0774 25.2142C12.3022 25.3795 12.5659 25.4838 12.843 25.517L16.25 25.925V27C16.25 27.7293 16.5397 28.4288 17.0555 28.9445C17.5712 29.4603 18.2707 29.75 19 29.75C19.7294 29.75 20.4288 29.4603 20.9446 28.9445C21.4603 28.4288 21.75 27.7293 21.75 27V25.925L25.157 25.516C25.4339 25.4827 25.6975 25.3784 25.9222 25.2131C26.1468 25.0478 26.3249 24.8273 26.4392 24.5729C26.5534 24.3184 26.5999 24.0388 26.5741 23.7611C26.5483 23.4834 26.4511 23.2171 26.292 22.988C25.5218 21.8794 25.0694 20.5812 24.984 19.234L24.763 15.701C24.6961 14.631 24.2238 13.6267 23.4424 12.8926C22.661 12.1585 21.6291 11.7499 20.557 11.75H20V11ZM17.443 13.25C16.7526 13.2499 16.0881 13.513 15.5848 13.9856C15.0815 14.4582 14.7773 15.1049 14.734 15.794L14.514 19.328C14.4112 20.9487 13.8669 22.5105 12.94 23.844C12.9285 23.8606 12.9214 23.8798 12.9195 23.8999C12.9177 23.92 12.921 23.9403 12.9293 23.9587C12.9375 23.9771 12.9504 23.9931 12.9666 24.005C12.9829 24.017 13.002 24.0246 13.022 24.027L16.759 24.476C18.248 24.654 19.752 24.654 21.241 24.476L24.978 24.027C24.9981 24.0246 25.0171 24.017 25.0334 24.005C25.0496 23.9931 25.0625 23.9771 25.0708 23.9587C25.079 23.9403 25.0824 23.92 25.0805 23.8999C25.0786 23.8798 25.0715 23.8606 25.06 23.844C24.1335 22.5104 23.5895 20.9486 23.487 19.328L23.266 15.794C23.2228 15.1049 22.9185 14.4582 22.4152 13.9856C21.9119 13.513 21.2474 13.2499 20.557 13.25H17.443ZM19 28.25C18.31 28.25 17.75 27.69 17.75 27V26.25H20.25V27C20.25 27.69 19.69 28.25 19 28.25Z" fill="black" fill-opacity="0.5"/>
</svg>
