<svg width="24" height="24" viewBox="0 0 24 24" fill="none" xmlns="http://www.w3.org/2000/svg">
<path d="M10.25 10C10.2547 9.83299 10.2259 9.66667 10.1652 9.51095C10.1046 9.35522 10.0133 9.21324 9.8968 9.0934C9.7803 8.97356 9.64096 8.8783 9.48701 8.81326C9.33306 8.74821 9.16763 8.71469 9.0005 8.71469C8.83337 8.71469 8.66794 8.74821 8.51399 8.81326C8.36004 8.8783 8.2207 8.97356 8.10421 9.0934C7.98771 9.21324 7.89643 9.35522 7.83576 9.51095C7.7751 9.66667 7.74627 9.83299 7.751 10C7.7602 10.3253 7.89588 10.6342 8.1292 10.861C8.36253 11.0878 8.6751 11.2147 9.0005 11.2147C9.3259 11.2147 9.63847 11.0878 9.87179 10.861C10.1051 10.6342 10.2408 10.3253 10.25 10ZM16.25 10C16.2547 9.83299 16.2259 9.66667 16.1652 9.51095C16.1046 9.35522 16.0133 9.21324 15.8968 9.0934C15.7803 8.97356 15.641 8.8783 15.487 8.81326C15.3331 8.74821 15.1676 8.71469 15.0005 8.71469C14.8334 8.71469 14.6679 8.74821 14.514 8.81326C14.36 8.8783 14.2207 8.97356 14.1042 9.0934C13.9877 9.21324 13.8964 9.35522 13.8358 9.51095C13.7751 9.66667 13.7463 9.83299 13.751 10C13.7602 10.3253 13.8959 10.6342 14.1292 10.861C14.3625 11.0878 14.6751 11.2147 15.0005 11.2147C15.3259 11.2147 15.6385 11.0878 15.8718 10.861C16.1051 10.6342 16.2408 10.3253 16.25 10ZM15.75 14C14.9 14 13.993 14.213 13.209 14.519C12.432 14.821 11.695 15.243 11.219 15.719C11.1474 15.7883 11.0903 15.8711 11.051 15.9626C11.0118 16.0541 10.9911 16.1525 10.9903 16.2521C10.9895 16.3517 11.0085 16.4504 11.0463 16.5426C11.084 16.6347 11.1398 16.7185 11.2102 16.7888C11.2807 16.8592 11.3644 16.9149 11.4566 16.9525C11.5488 16.9902 11.6476 17.0091 11.7472 17.0082C11.8467 17.0073 11.9451 16.9866 12.0366 16.9472C12.1281 16.9079 12.2108 16.8507 12.28 16.779C12.555 16.505 13.083 16.177 13.753 15.917C14.413 15.66 15.132 15.499 15.75 15.499H16.35C16.5489 15.499 16.7397 15.42 16.8803 15.2794C17.021 15.1387 17.1 14.948 17.1 14.749C17.1 14.5501 17.021 14.3594 16.8803 14.2187C16.7397 14.0781 16.5489 13.999 16.35 13.999L15.75 14ZM22.002 12C22.002 6.47605 17.524 1.99805 12 1.99805C6.476 1.99805 2 6.47605 2 12C1.999 17.523 6.476 22 12 22C17.524 22 22.002 17.523 22.002 12ZM3.499 12C3.48681 10.8759 3.6977 9.76041 4.11947 8.71827C4.54124 7.67612 5.16552 6.72798 5.95617 5.92871C6.74681 5.12944 7.68813 4.49492 8.72564 4.06187C9.76315 3.62882 10.8762 3.40584 12.0005 3.40584C13.1248 3.40584 14.2379 3.62882 15.2754 4.06187C16.3129 4.49492 17.2542 5.12944 18.0448 5.92871C18.8355 6.72798 19.4598 7.67612 19.8815 8.71827C20.3033 9.76041 20.5142 10.8759 20.502 12C20.4777 14.2388 19.5713 16.3776 17.9796 17.9522C16.3879 19.5267 14.2394 20.4098 12.0005 20.4098C9.7616 20.4098 7.61307 19.5267 6.02137 17.9522C4.42966 16.3776 3.52328 14.2388 3.499 12Z" fill="black" fill-opacity="0.5"/>
</svg>
